<?xml version="1.0" encoding="UTF-8" standalone="no"?>
<!-- Created with Inkscape (http://www.inkscape.org/) -->

<svg
   xmlns:dc="http://purl.org/dc/elements/1.1/"
   xmlns:cc="http://creativecommons.org/ns#"
   xmlns:rdf="http://www.w3.org/1999/02/22-rdf-syntax-ns#"
   xmlns:svg="http://www.w3.org/2000/svg"
   xmlns="http://www.w3.org/2000/svg"
   xmlns:sodipodi="http://sodipodi.sourceforge.net/DTD/sodipodi-0.dtd"
   xmlns:inkscape="http://www.inkscape.org/namespaces/inkscape"
   id="svg33556"
   inkscape:export-ydpi="300"
   inkscape:export-filename="/home/bersace/Pictures/Scoutisme/Quattres Bosses.png"
   viewBox="0 0 133.97614 99.187035"
   sodipodi:version="0.32"
   inkscape:export-xdpi="300"
   version="1.0"
   inkscape:version="0.91 r13725"
   sodipodi:docname="Quattres-Bosses.svg"
   width="133.97614"
   height="99.187035">
  <defs
     id="defs24">
    <inkscape:path-effect
       effect="skeletal"
       id="path-effect4505-3"
       is_visible="true"
       pattern="m 416.54244,475.31374 c -0.9387,0.59096 -0.49767,2.58528 -2.77633,1.72862 l -0.005,-0.01 c 0.80458,-0.66311 0.34656,-2.64696 2.75575,-1.72124 z"
       copytype="repeated"
       prop_scale="1"
       scale_y_rel="false"
       spacing="-0.9"
       normal_offset="0"
       tang_offset="0"
       prop_units="false"
       vertical_pattern="false"
       fuse_tolerance="0" />
  </defs>
  <sodipodi:namedview
     id="base"
     bordercolor="#666666"
     inkscape:pageshadow="2"
     guidetolerance="10.0"
     pagecolor="#ffffff"
     gridtolerance="10.0"
     inkscape:window-maximized="1"
     inkscape:window-width="1680"
     inkscape:zoom="0.25"
     objecttolerance="10.0"
     showgrid="false"
     borderopacity="1.0"
     inkscape:current-layer="layer1"
     inkscape:cx="311.28737"
     inkscape:cy="-459.76459"
     inkscape:window-y="0"
     inkscape:window-x="0"
     inkscape:window-height="1000"
     showborder="false"
     inkscape:pageopacity="0.0"
     inkscape:snap-bbox="true"
     inkscape:snap-bbox-midpoints="true"
     fit-margin-top="0"
     fit-margin-left="0"
     fit-margin-right="0"
     fit-margin-bottom="0" />
  <sodipodi:namedview
     id="namedview4"
     bordercolor="#666666"
     inkscape:pageshadow="2"
     inkscape:window-y="25"
     pagecolor="#ffffff"
     inkscape:window-width="1270"
     inkscape:zoom="0.49497475"
     inkscape:window-x="0"
     borderopacity="1.0"
     inkscape:current-layer="layer1"
     inkscape:cx="624.55133"
     inkscape:cy="242.95622"
     inkscape:window-height="945"
     inkscape:pageopacity="0.0"
     inkscape:document-units="px" />
  <g
     id="layer1"
     inkscape:label="Calque 1"
     inkscape:groupmode="layer"
     transform="translate(-257.52173,-275.47685)">
    <path
       style="fill:#003399;fill-opacity:0.23999999;fill-rule:evenodd;stroke:none;stroke-width:0.1;stroke-linecap:round;stroke-linejoin:round;stroke-miterlimit:4;stroke-dasharray:none;stroke-opacity:0.23921569"
       d="m 285.99273,324.03656 c -14.63714,14.62241 -29.19765,12.66509 -26.54794,28.66005 2.41171,14.55825 22.78219,6.24798 36.51474,16.14073 8.09086,5.82856 15.73428,6.29328 23.26466,5.56187 7.72712,-0.75052 15.35394,-2.78855 24.71285,-3.81776 29.83945,-3.2815 3.68622,-19.71156 15.57478,-34.11375 -0.70266,0.7351 -0.84911,-0.86275 -1.42624,-0.15839 -7.76783,9.48016 0.44033,19.60565 -2.07173,27.19887 -1.00828,3.04772 -5.79294,5.19526 -13.41588,5.54809 -17.67054,0.81787 -30.35275,10.08033 -45.95094,-1.15641 -6.03158,-4.34507 -13.14121,-5.22667 -19.36934,-5.80302 -7.2643,-0.67225 -15.33044,-1.79563 -16.56594,-9.25369 -2.52122,-15.21933 12.52353,-13.65883 26.4509,-27.57219"
       id="path4449-2-9"
       inkscape:connector-curvature="0"
       sodipodi:nodetypes="csssscssssssc" />
    <path
       style="fill:#52553f;fill-opacity:1;fill-rule:evenodd;stroke:#2e3023;stroke-width:0.30000001;stroke-linecap:round;stroke-linejoin:round;stroke-miterlimit:4;stroke-dasharray:none;stroke-opacity:1"
       d="m 283.29417,324.61231 c 0.34353,-1.14264 -1.37304,-2.16451 0.83683,-3.15125 0,0 0.0105,0.004 0.0105,0.004 -0.0822,0.96184 1.6048,2.20788 -0.82622,3.13243 0,0 -0.0211,0.0152 -0.0211,0.0152 z m -1.44682,1.23553 c 0.3777,-1.12029 -1.29089,-2.22002 0.95534,-3.11187 0,0 0.0103,0.004 0.0103,0.004 -0.12472,0.96252 1.50974,2.25682 -0.9441,3.0934 0,0 -0.0216,0.0144 -0.0216,0.0144 z m -1.48182,1.18671 c 0.40559,-1.09972 -1.21959,-2.26921 1.05811,-3.07786 0,0 0.0102,0.004 0.0102,0.004 -0.16301,0.96459 1.4272,2.29827 -1.04634,3.05968 -1e-5,0 -0.022,0.0138 -0.022,0.0138 z m -1.51077,1.14529 c 0.42736,-1.08103 -1.15929,-2.31195 1.14515,-3.04923 0,0 0.0101,0.005 0.0101,0.005 -0.19699,0.9679 1.35708,2.33236 -1.13294,3.03128 -10e-6,1e-5 -0.0223,0.0132 -0.0223,0.0132 z m -1.53366,1.11128 c 0.44316,-1.06429 -1.11016,-2.34819 1.21645,-3.02597 0,0 0.01,0.005 0.01,0.005 -0.22654,0.97239 1.29927,2.35918 -1.2039,3.00821 -1e-5,0 -0.0225,0.0128 -0.0225,0.0128 z m -1.55052,1.08468 c 0.45317,-1.04951 -1.07236,-2.37791 1.27202,-3.00808 0,-1e-5 0.01,0.005 0.01,0.005 -0.25153,0.97797 1.25364,2.37877 -1.25922,2.99044 -1e-5,10e-6 -0.0226,0.0124 -0.0227,0.0125 z m -1.56131,1.06548 c 0.45753,-1.03669 -1.04604,-2.4011 1.31185,-2.99557 0,0 0.01,0.005 0.01,0.005 -0.27183,0.98462 1.22004,2.39119 -1.29891,2.97799 -2e-5,1e-5 -0.0227,0.0122 -0.0227,0.0122 z m -1.56607,1.0537 c 0.45639,-1.02581 -1.03133,-2.4178 1.33596,-2.98843 0,0 0.01,0.005 0.01,0.005 -0.2873,0.99233 1.19836,2.39643 -1.32295,2.97086 -7e-5,4e-5 -0.0227,0.0121 -0.0228,0.0121 z m -1.56476,1.04933 c 0.44987,-1.01684 -1.02838,-2.42804 1.34432,-2.98667 -10e-6,-10e-6 0.01,0.006 0.01,0.006 -0.2978,1.00112 1.18846,2.3945 -1.33134,2.96905 4e-5,-2e-5 -0.0228,0.0121 -0.0227,0.0121 z m -1.55741,1.05235 c 0.43812,-1.00972 -1.03733,-2.43186 1.33694,-2.99028 10e-6,10e-6 0.01,0.006 0.01,0.006 -0.30321,1.01099 1.19017,2.38536 -1.32411,2.97255 2e-5,-1e-5 -0.0226,0.0122 -0.0226,0.0122 z m -1.54401,1.0628 c 0.42127,-1.00443 -1.0583,-2.42929 1.31384,-2.99926 0,0 0.01,0.005 0.01,0.005 -0.30337,1.02197 1.2034,2.36901 -1.30123,2.98138 1e-5,-1e-5 -0.0224,0.0124 -0.0224,0.0124 z m -1.52455,1.08065 c 0.39944,-1.00094 -1.09144,-2.42037 1.27499,-3.01362 0,0 0.01,0.005 0.01,0.005 -0.29815,1.03406 1.22798,2.34542 -1.26271,2.99551 10e-6,-1e-5 -0.0221,0.0127 -0.0221,0.0127 z m -1.47481,1.11151 c 0.19279,-0.57685 -0.32622,-1.61631 -0.0913,-2.1847 0.13529,-0.33847 0.49265,-0.64242 1.28749,-0.85426 0,0 0.01,0.005 0.01,0.005 -0.21893,0.79771 0.67079,1.76845 -0.10075,2.48229 0,0 0,0 0,0 -0.21337,0.20159 -0.54856,0.37539 -1.08415,0.53795 10e-6,-1e-5 -0.0212,0.0135 -0.0212,0.0135 z m -1.38423,1.18602 c 0.22748,-0.93363 -1.33477,-2.41013 1.03738,-3.10906 1e-5,10e-6 0.0101,0.005 0.0101,0.005 -0.13183,0.50628 0.20322,1.10176 0.26831,1.6358 0.0688,0.56463 -0.13505,1.0077 -1.29602,1.45348 10e-6,-10e-6 -0.0198,0.0148 -0.0198,0.0148 z m -1.2448,1.28347 c 0.0666,-0.54004 -0.31956,-1.0356 -0.45106,-1.59173 -0.12291,-0.51979 0.0124,-1.13153 1.20674,-1.5858 0,0 0.0105,0.004 0.0105,0.004 -0.0992,0.51795 0.27985,1.09402 0.38735,1.61551 0.11611,0.56323 -0.0503,0.98923 -1.13583,1.54131 0,0 -0.0177,0.0165 -0.0177,0.0165 z m -1.04782,1.40013 c -0.016,-0.54218 -0.45869,-0.96824 -0.65802,-1.50693 -0.18199,-0.49181 -0.12092,-1.13623 1.02944,-1.71457 0,0 0.0108,0.003 0.0108,0.003 -0.0516,0.52404 0.38237,1.06046 0.54501,1.55863 0.17906,0.54841 0.0634,0.95859 -0.91241,1.64125 0,0 -0.0149,0.0185 -0.0149,0.0185 z m -0.80119,1.53097 c -0.0508,-0.25256 -0.20179,-0.4736 -0.37858,-0.6942 -0.46761,-0.58253 -1.37898,-1.42435 0.27105,-2.54172 0,0 0.0111,0.002 0.0111,0.002 0.0101,0.49126 0.44166,0.92997 0.68611,1.36151 0.26086,0.46052 0.31553,0.86406 -0.25259,1.51887 -0.093,0.10261 -0.20029,0.21168 -0.32547,0.33331 0,0 -0.0116,0.0206 -0.0116,0.0206 z m -0.53523,1.64221 c -0.17739,-0.46965 -0.68372,-0.7335 -1.04508,-1.13059 -0.33479,-0.3679 -0.55425,-0.91277 0.098,-1.73066 0.0865,-0.10448 0.18751,-0.21196 0.30409,-0.32073 0,0 0.0114,-1.6e-4 0.0114,-1.6e-4 0.0402,0.23768 0.17627,0.442 0.34051,0.63282 0,0 1e-5,0 1e-5,0 0.66527,0.77157 1.36816,1.04712 0.29907,2.52694 0,0 -0.008,0.0224 -0.008,0.0224 z m -0.27843,1.73081 c -0.25889,-0.48011 -0.85921,-0.66239 -1.27964,-1.04389 -0.38111,-0.34583 -0.63652,-0.95616 0.14578,-2.00059 0,0 0.0111,-0.002 0.0111,-0.002 0.17826,0.49371 0.80807,0.77989 1.17603,1.14187 0.40165,0.39512 0.50972,0.81235 -0.0484,1.88095 0,0 -0.005,0.0237 -0.005,0.0237 z m -0.0617,1.78807 c -0.31105,-0.45404 -0.94017,-0.57009 -1.40535,-0.89515 -0.43021,-0.30064 -0.74945,-0.85991 -0.12656,-1.9968 0,0 0.0107,-0.004 0.0107,-0.004 0.25036,0.46007 0.91472,0.65094 1.3341,0.96412 0.45065,0.33654 0.62974,0.75789 0.18934,1.90689 0,0 -0.002,0.0246 -0.002,0.0246 z m 0.11501,1.81401 c -0.34827,-0.4277 -0.99283,-0.48668 -1.48876,-0.76162 -0.46555,-0.25809 -0.83371,-0.76952 -0.3533,-1.96838 0,0 0.0102,-0.005 0.0102,-0.005 0.30904,0.42618 0.99376,0.5356 1.45139,0.80445 0.48601,0.28551 0.72096,0.70351 0.3805,1.90549 0,10e-6 -5e-5,0.025 -5e-5,0.025 z m 0.2565,1.79789 c -0.13244,-0.13348 -0.29827,-0.22326 -0.48072,-0.29381 -0.77656,-0.30676 -2.17359,-0.22842 -1.58846,-2.25408 0,0 0.01,-0.006 0.01,-0.006 0.7441,0.82415 2.4082,0.12372 2.11889,2.1705 -0.0152,0.11069 -0.0357,0.22946 -0.0615,0.35911 0,-10e-6 0.002,0.0242 0.002,0.0242 z m 0.45218,1.69886 c -0.39669,-0.29321 -0.95435,-0.25258 -1.47179,-0.38188 -0.489,-0.12219 -0.95152,-0.42696 -0.90485,-1.37162 0.007,-0.16035 0.0288,-0.34032 0.0692,-0.54053 -10e-6,0 0.009,-0.007 0.009,-0.007 0.2438,0.22661 0.59907,0.30295 0.95027,0.37672 0.86411,0.18145 1.44122,0.27205 1.34277,1.90069 0,-10e-6 0.005,0.0232 0.005,0.0232 z m 0.71104,1.55971 c -0.49594,-0.22912 -1.06049,-0.0331 -1.64444,-0.12241 -0.51333,-0.0785 -1.08169,-0.46742 -0.98401,-1.78257 0,0 0.008,-0.008 0.008,-0.008 0.42162,0.32098 1.11354,0.22295 1.62351,0.32896 0.57826,0.12021 0.8415,0.40501 0.98727,1.56257 -10e-6,-10e-6 0.009,0.0212 0.009,0.0212 z m 1.00792,1.34751 c -0.55761,-0.11518 -1.5989,0.45403 -2.20376,0.13235 -0.32853,-0.17657 -0.65708,-0.62523 -0.74391,-1.47681 0,0 0.007,-0.009 0.007,-0.009 0.90948,0.48491 1.68058,-0.43701 2.41914,0.3362 0,0 0,0 0,0 0.18513,0.1982 0.32226,0.49008 0.5079,0.99885 0,0 0.0138,0.0185 0.0138,0.0185 z m 1.29256,1.1021 c -0.54648,0.002 -0.97963,0.42505 -1.54608,0.58942 -0.48247,0.14001 -1.20943,0.0329 -1.64148,-1.26196 0,0 0.005,-0.0104 0.005,-0.0104 0.51389,0.14999 1.12229,-0.21305 1.62148,-0.32374 0.56982,-0.12636 0.91731,0.003 1.54379,0.99135 0,0 0.0177,0.0154 0.0177,0.0154 z m 1.50602,0.84706 c -0.61114,0.10031 -0.94895,0.69187 -1.55441,0.93208 -0.42995,0.16651 -1.09078,0.0895 -1.71264,-0.95053 0,0 0.002,-0.0112 0.002,-0.0112 0.45609,0.0267 0.88083,-0.31442 1.28161,-0.5459 0.41762,-0.24121 0.79998,-0.37325 1.29339,-0.0476 0,0 0,0 0,0 0.19513,0.13091 0.40499,0.32589 0.6693,0.61085 0,0 0.0205,0.0123 0.0205,0.0123 z m 1.64558,0.61955 c -0.52144,0.15487 -0.82065,0.70744 -1.27477,1.04408 -0.41237,0.30567 -1.05776,0.44153 -1.9399,-0.52354 0,0 7e-5,-0.0113 7e-5,-0.0113 0.52325,-0.0836 0.9268,-0.64988 1.35435,-0.94127 0.46526,-0.3171 0.89975,-0.3403 1.83793,0.42248 10e-6,0 0.0223,0.01 0.0223,0.01 z m 1.74309,0.43475 c -0.51089,0.20269 -0.76091,0.79422 -1.17047,1.17823 -0.38216,0.35831 -0.98211,0.5529 -1.96765,-0.27321 0,0 -0.001,-0.0111 -0.001,-0.0111 0.49889,-0.1566 0.8153,-0.76759 1.20625,-1.11462 0.41576,-0.36905 0.87533,-0.46499 1.90964,0.21326 2e-5,0 0.0237,0.007 0.0237,0.007 z m 1.81203,0.30445 c -0.50323,0.23212 -0.71797,0.84981 -1.09348,1.26538 -0.35832,0.39654 -0.91943,0.62998 -1.97601,-0.0825 0,0 -0.003,-0.011 -0.003,-0.011 1.07552,-0.48191 0.81143,-2.4411 3.04752,-1.17799 2e-5,0 0.0246,0.006 0.0246,0.006 z m 1.85243,0.22863 c -0.49796,0.24353 -0.69236,0.87386 -1.04381,1.30551 -0.34148,0.41941 -0.86913,0.67379 -1.96499,0.0485 10e-6,10e-6 -0.003,-0.0108 -0.003,-0.0108 0.4593,-0.25546 0.65769,-0.91232 1.00125,-1.32756 0.35183,-0.42521 0.84651,-0.61557 1.98593,-0.0211 6e-5,10e-6 0.025,0.005 0.0251,0.005 z m 1.86323,0.19323 c -0.62542,0.3161 -0.74608,1.21354 -1.30779,1.59146 -0.32788,0.22347 -0.81812,0.26521 -1.6472,-0.15885 0,1e-5 -0.004,-0.0106 -0.004,-0.0106 0.72575,-0.45871 0.69277,-1.86337 1.85276,-1.7765 0,0 0,0 0,0 0.28009,0.0186 0.63017,0.12381 1.081,0.34944 3e-5,1e-5 0.0251,0.005 0.0251,0.005 z m 1.87106,0.17447 c -0.97718,0.49586 -0.74464,2.53969 -2.93231,1.45819 0,0 -0.004,-0.0105 -0.004,-0.0105 0.87869,-0.58143 0.59671,-2.59556 2.91103,-1.4527 -3.1e-4,-6e-5 0.0256,0.005 0.0253,0.005 z m 1.87941,0.17811 c -1.00011,0.49671 -0.73754,2.52601 -2.93066,1.46191 0,10e-6 -0.004,-0.0104 -0.004,-0.0104 0.8557,-0.58016 0.59519,-2.61356 2.90939,-1.45662 -3e-5,0 0.0254,0.005 0.0253,0.005 z m 1.88485,0.20089 c -1.02825,0.48682 -0.7553,2.50352 -2.94229,1.43472 0,-1e-5 -0.004,-0.0104 -0.004,-0.0104 0.83844,-0.56972 0.61979,-2.62391 2.92095,-1.42986 -10e-6,-1e-5 0.0254,0.006 0.0254,0.006 z m 1.88737,0.24277 c -1.06198,0.46577 -0.79751,2.47268 -2.96717,1.37664 0,-10e-6 -0.004,-0.0105 -0.004,-0.0105 0.82648,-0.55045 0.67096,-2.62624 2.94575,-1.37242 -10e-6,-1e-5 0.0253,0.006 0.0253,0.006 z m 1.88697,0.30379 c -1.10164,0.43301 -0.86384,2.43401 -3.00531,1.28765 0,0 -0.004,-0.0105 -0.004,-0.0105 0.43922,-0.28021 0.60697,-0.91815 0.96115,-1.33914 0.34454,-0.40953 0.89384,-0.61993 2.0226,0.0548 0,0 0.0252,0.007 0.0252,0.007 z m 1.88441,0.38509 c -1.03977,0.34967 -0.64634,1.20086 -1.66084,1.51366 -0.32617,0.10061 -0.74767,0.0296 -1.39663,-0.34707 0,0 -0.003,-0.0106 -0.003,-0.0106 0.65823,-0.39245 0.79367,-1.68608 1.79272,-1.65647 0,0 0,0 0,0 0.31414,0.009 0.72315,0.14747 1.24304,0.49208 0,0 0.025,0.008 0.025,0.008 z m 1.86978,0.48616 c -1.18494,0.32499 -1.06886,2.33066 -3.11497,1.01309 0,0 -0.003,-0.0108 -0.003,-0.0108 0.45877,-0.24859 0.67199,-0.8676 1.0658,-1.26072 0.37751,-0.37684 0.96071,-0.54602 2.02741,0.24857 0,0 0.0245,0.01 0.0245,0.01 z m 1.84174,0.59599 c -1.21362,0.25266 -1.19193,2.25779 -3.16665,0.83593 0,0 -0.002,-0.0109 -0.002,-0.0109 0.47177,-0.22581 0.71639,-0.83202 1.13245,-1.20363 0.39718,-0.35476 0.9935,-0.49199 2.01248,0.36728 -10e-6,0 0.0239,0.0113 0.0239,0.0113 z m 1.80123,0.71372 c -1.24,0.17057 -1.32111,2.16759 -3.20718,0.63566 0,0 -0.002,-0.011 -0.002,-0.011 0.4837,-0.19906 0.76153,-0.78785 1.20007,-1.13362 0.41655,-0.32843 1.02456,-0.42984 1.98553,0.49606 0,0 0.0231,0.0129 0.0231,0.0129 z m 1.74825,0.83936 c -0.56002,0.0346 -0.97277,0.56265 -1.42476,0.85357 -0.4708,0.30304 -0.94971,0.35704 -1.8118,-0.44131 0,0 -8.1e-4,-0.0111 -8.1e-4,-0.0111 0.49454,-0.16831 0.80739,-0.73519 1.26865,-1.05071 0.43557,-0.29795 1.05391,-0.35948 1.94657,0.63492 0,0 0.0222,0.0146 0.0222,0.0146 z m 1.68278,0.97289 c -0.56223,-0.011 -1.01651,0.48319 -1.48823,0.73783 -0.49351,0.2664 -0.96835,0.28191 -1.76655,-0.57209 0,0 -10e-6,-0.0111 -10e-6,-0.0111 0.50431,-0.13347 0.854,-0.67406 1.3382,-0.95487 0.45425,-0.26343 1.08157,-0.28082 1.89561,0.78383 -1e-5,0 0.021,0.0164 0.021,0.0164 z m 1.58122,1.08186 c -0.34326,-0.0123 -0.65798,0.16016 -0.9733,0.3414 -0.72665,0.4175 -1.27565,0.83084 -2.26492,-0.41283 0,0 8.5e-4,-0.011 8.5e-4,-0.011 0.83399,-0.15362 1.62122,-1.78235 2.86284,-0.40731 0.11299,0.12964 0.23052,0.28575 0.35549,0.47333 0,-10e-6 0.019,0.0164 0.019,0.0164 z m 1.53607,1.01292 c -0.97925,0.0147 -1.82118,1.74941 -3.08603,0.12897 -0.055,-0.0737 -0.1114,-0.15428 -0.16975,-0.24242 0,-10e-6 0.002,-0.0109 0.002,-0.0109 0.15544,-0.0153 0.30632,-0.0709 0.45607,-0.1466 0.88254,-0.4303 1.51093,-1.45509 2.77808,0.25553 -1e-5,0 0.0198,0.0155 0.0198,0.0155 z m 1.58457,0.9313 c -0.9998,0.0689 -1.81243,2.01859 -3.27311,0.0419 0,0 0.001,-0.0112 0.001,-0.0112 1.14821,-0.10986 1.62126,-2.01925 3.25129,-0.0452 0,0 0.0206,0.0144 0.0206,0.0144 z m 1.62966,0.84151 c -0.98722,0.1249 -1.70083,2.11594 -3.26427,0.21944 0,0 6.3e-4,-0.0112 6.3e-4,-0.0112 0.51774,-0.0768 0.93427,-0.6148 1.40062,-0.87902 0.48527,-0.27496 0.98959,-0.26434 1.84171,0.65765 0,0 0.0213,0.0132 0.0213,0.0132 z m 1.67138,0.74357 c -0.9707,0.18305 -1.57684,2.21165 -3.24294,0.40586 0,0 10e-6,-0.0113 10e-6,-0.0113 0.51257,-0.10487 0.8988,-0.66505 1.34855,-0.95472 0.46905,-0.30211 0.96964,-0.31924 1.87238,0.54827 0,0 0.022,0.0118 0.022,0.0118 z m 1.70969,0.63746 c -0.95039,0.2433 -1.44024,2.30578 -3.2091,0.60121 0,0 -6.5e-4,-0.0112 -6.5e-4,-0.0112 0.50529,-0.13405 0.8581,-0.71569 1.28877,-1.03118 0.45012,-0.32974 0.94531,-0.37611 1.89833,0.4308 0,-10e-6 0.0226,0.0104 0.0226,0.0104 z m 1.74463,0.52319 c -0.5209,0.17184 -0.80327,0.74923 -1.22685,1.11467 -0.40627,0.3505 -0.98034,0.5039 -1.93591,-0.30918 0,0 -0.001,-0.0111 -0.001,-0.0111 0.49589,-0.16433 0.81214,-0.76671 1.22126,-1.10837 0.42846,-0.35783 0.91664,-0.43502 1.91957,0.30519 0,0 0.0233,0.009 0.0233,0.009 z m 1.77593,0.40263 c -0.35197,0.14338 -0.58065,0.48007 -0.8224,0.8061 -0.42753,0.5765 -0.96347,1.19161 -2.28127,0.21072 0,0 -0.002,-0.011 -0.002,-0.011 0.94793,-0.38298 0.96869,-2.03015 2.52565,-1.32315 0,0 0,0 0,0 0.1657,0.0759 0.34874,0.1778 0.55626,0.31012 0,0 0.0238,0.007 0.0238,0.007 z m 1.80104,0.28298 c -0.86125,0.41747 -0.9389,2.39145 -2.80416,1.36108 -0.0725,-0.0403 -0.14748,-0.0852 -0.22488,-0.13494 0,0 -0.003,-0.0109 -0.003,-0.0109 0.11647,-0.0564 0.21763,-0.13704 0.30924,-0.23217 0,0 0,0 0,0 0.7114,-0.73968 0.77263,-2.04256 2.69833,-0.98874 1e-5,0 0.0243,0.006 0.0243,0.006 z m 1.82028,0.16972 c -0.47953,0.26802 -0.64553,0.8921 -0.98717,1.33274 -0.32853,0.42372 -0.85771,0.6881 -1.95675,0.0832 0,0 -0.004,-0.0106 -0.004,-0.0106 1.01174,-0.58093 0.61316,-2.49702 2.92279,-1.40947 0,0 0.0247,0.004 0.0247,0.004 z m 1.834,0.0668 c -0.46586,0.29328 -0.5985,0.92753 -0.91434,1.38653 -0.30499,0.44322 -0.81465,0.73429 -1.94564,0.19813 0,0 -0.004,-0.0104 -0.004,-0.0104 0.96204,-0.6359 0.47043,-2.53885 2.8392,-1.57712 0,0 0.025,0.003 0.025,0.003 z m 1.84218,-0.0257 c -0.82927,0.57733 -0.50271,2.66178 -2.7774,1.73302 0,0 -0.005,-0.0102 -0.005,-0.0102 0.91509,-0.68322 0.33981,-2.57225 2.75698,-1.72454 1e-5,0 0.0252,0.002 0.0252,0.002 z m 1.84482,-0.10785 c -0.81295,0.61653 -0.37934,2.67526 -2.69617,1.861 0,0 -0.005,-0.01 -0.005,-0.01 0.87084,-0.72325 0.22134,-2.59688 2.67614,-1.85172 1e-5,0 0.0253,6.5e-4 0.0253,6.5e-4 z m 1.84383,-0.17986 c -0.18203,0.14754 -0.29647,0.35074 -0.38687,0.57396 -0.32097,0.79382 -0.3543,1.96214 -2.23133,1.39486 0,0 -0.006,-0.01 -0.006,-0.01 0.76299,-0.69588 0.20544,-2.38907 2.16466,-2.05404 0.1325,0.0224 0.27658,0.0538 0.43382,0.0952 1e-5,0 0.0254,-2.7e-4 0.0254,-2.7e-4 z m 1.84636,-0.23423 c -0.75966,0.64478 -0.26187,2.38414 -2.08898,2.14162 -0.14052,-0.0183 -0.29475,-0.0486 -0.46356,-0.0924 0,0 -0.006,-0.009 -0.006,-0.009 0.19709,-0.19521 0.29431,-0.47375 0.37589,-0.76444 0.23284,-0.83032 0.33218,-1.70708 2.15725,-1.27443 0,0 0.0254,-8.8e-4 0.0255,-8.8e-4 z m 1.84521,-0.27413 c -0.8017,0.70559 -0.12612,2.66012 -2.50455,2.1055 0,0 -0.006,-0.009 -0.006,-0.009 0.74559,-0.78465 -0.0282,-2.6387 2.48533,-2.09485 10e-6,0 0.0255,-0.001 0.0255,-0.001 z m 1.84511,-0.30538 c -0.79976,0.72286 -0.0796,2.65644 -2.46799,2.15005 0,0 -0.006,-0.009 -0.006,-0.009 0.72176,-0.79379 -0.0756,-2.64601 2.44892,-2.13916 1e-5,-10e-6 0.0255,-0.002 0.0255,-0.002 z m 1.84605,-0.328 c -0.80084,0.73637 -0.0454,2.65169 -2.44091,2.1828 0,0 -0.007,-0.009 -0.007,-0.009 0.70186,-0.79942 -0.11103,-2.65336 2.42194,-2.17175 2e-5,-10e-6 0.0256,-0.002 0.0256,-0.002 z m 1.84801,-0.34195 c -0.80502,0.74602 -0.0235,2.64593 -2.4233,2.20374 0,0 -0.007,-0.009 -0.007,-0.009 0.68577,-0.80161 -0.13446,-2.66068 2.40437,-2.19264 5e-5,0 0.0256,-0.002 0.0256,-0.002 z m 1.85102,-0.34727 c -0.8124,0.75177 -0.0137,2.63922 -2.41517,2.21287 0,0 -0.007,-0.009 -0.007,-0.009 0.6734,-0.80042 -0.14576,-2.66793 2.39624,-2.2018 -7e-5,0 0.0257,-0.002 0.0257,-0.002 z m 1.85506,-0.34394 c -0.82309,0.75356 -0.0161,2.63162 -2.41651,2.2102 -4e-5,-6e-5 -0.007,-0.009 -0.007,-0.009 0.66464,-0.79588 -0.14482,-2.67506 2.39755,-2.19925 -3e-5,0 0.0257,-0.002 0.0257,-0.002 z m 1.86015,-0.33197 c -0.8372,0.75133 -0.0304,2.62321 -2.42733,2.19572 0,0 -0.007,-0.009 -0.007,-0.009 0.65939,-0.78805 -0.13152,-2.68202 2.40829,-2.18498 -10e-6,0 0.0258,-0.002 0.0258,-0.002 z m 1.86626,-0.31134 c -0.8548,0.74502 -0.0567,2.61401 -2.44762,2.16944 0,0 -0.007,-0.009 -0.007,-0.009 0.65753,-0.77695 -0.10579,-2.68877 2.42845,-2.159 -1e-5,0 0.0258,-0.001 0.0258,-0.001 z m 1.87342,-0.28207 c -0.87601,0.73455 -0.0947,2.60413 -2.47739,2.13134 0,0 -0.007,-0.009 -0.007,-0.009 0.65897,-0.76265 -0.0675,-2.69526 2.45804,-2.1213 -1e-5,0 0.0259,-0.001 0.0259,-0.001 z m 1.88161,-0.24416 c -0.90092,0.71984 -0.14439,2.59364 -2.51663,2.08145 0,0 -0.006,-0.009 -0.006,-0.009 0.66361,-0.7452 -0.0166,-2.70143 2.49706,-2.07188 -1e-5,0 0.0259,-4.3e-4 0.0259,-4.3e-4 z m 1.89084,-0.19759 c -0.92959,0.70077 -0.20572,2.58264 -2.56534,2.01974 0,0 -0.006,-0.009 -0.006,-0.009 0.67136,-0.72469 0.0471,-2.70721 2.54551,-2.01075 -1e-5,0 0.026,2.7e-4 0.026,2.7e-4 z m 1.9011,-0.14239 c -0.96209,0.67723 -0.2786,2.57129 -2.62353,1.94623 0,0 -0.006,-0.009 -0.006,-0.009 0.68216,-0.70119 0.12357,-2.71248 2.60339,-1.93789 0,0 0.0261,0.001 0.0261,0.001 z m 1.86294,-0.11916 c -0.66351,0.50145 -0.51565,1.81016 -1.4773,2.02218 0,0 0,0 0,0 -0.27683,0.063 -0.6443,0.0355 -1.16442,-0.12064 0,0 -0.006,-0.01 -0.006,-0.01 0.4866,-0.47186 0.41723,-1.54886 1.06213,-1.92078 0.30911,-0.18375 0.77219,-0.2112 1.55989,0.0282 -2e-5,0 0.0254,6.6e-4 0.0253,6.6e-4 z m 1.83802,-0.18109 c -0.78841,0.65716 -0.26765,2.68168 -2.61204,1.97097 0,-1e-5 -0.006,-0.01 -0.006,-0.01 0.38433,-0.35383 0.43047,-1.02795 0.67768,-1.50878 0.25517,-0.49631 0.69331,-0.76934 1.91492,-0.45208 -1e-5,0 0.0251,-4.2e-4 0.0251,-4.2e-4 z m 1.80759,-0.2753 c -0.71627,0.68217 -0.13116,2.71039 -2.50769,2.09527 0,-1e-5 -0.006,-0.009 -0.006,-0.009 0.37291,-0.36765 0.39382,-1.04674 0.61718,-1.53528 0.23346,-0.51062 0.64685,-0.7902 1.87179,-0.54858 0,0 0.0248,-0.002 0.0248,-0.002 z m 1.76458,-0.40067 c -0.63364,0.71593 0.057,2.73292 -2.35616,2.25398 -10e-6,0 -0.007,-0.009 -0.007,-0.009 0.35366,-0.38592 0.33711,-1.06699 0.52739,-1.56489 0.20118,-0.52641 0.58415,-0.81923 1.81106,-0.67609 0,0 0.0243,-0.004 0.0243,-0.004 z m 1.7019,-0.56031 c -0.26362,0.38024 -0.23051,0.89902 -0.30564,1.3859 -0.0939,0.61507 -0.39939,1.24186 -1.84474,1.06434 0,0 -0.007,-0.009 -0.007,-0.009 0.6363,-0.7959 -0.13726,-2.1605 1.4064,-2.39527 0,0 0,0 0,0 0.20037,-0.0324 0.43495,-0.0445 0.7278,-0.04 -2e-5,0 0.0235,-0.006 0.0234,-0.006 z m 1.57456,-0.75373 c -0.22139,0.48323 -0.0323,1.04824 -0.0965,1.62304 -0.0584,0.5236 -0.38913,1.07122 -1.60103,1.06587 -0.0457,7e-5 -0.0926,-6.6e-4 -0.14075,-0.002 0,0 -0.008,-0.008 -0.008,-0.008 0.0357,-0.0533 0.0651,-0.10971 0.0894,-0.16864 0,0 0,0 0,0 0.1823,-0.43621 0.0777,-1.10083 0.18617,-1.56225 0.12479,-0.53066 0.44172,-0.79234 1.5494,-0.93836 -10e-6,10e-6 0.0214,-0.01 0.0214,-0.01 z m 1.32331,-1.0066 c -0.0883,0.54605 0.23181,1.00512 0.27261,1.61594 0.0341,0.51125 -0.23556,1.18171 -1.56409,1.34073 -1e-5,0 -0.009,-0.007 -0.009,-0.007 0.23938,-0.47691 0.011,-1.14292 0.0119,-1.65988 9.7e-4,-0.60628 0.21947,-0.87044 1.27135,-1.27628 0,1e-5 0.0175,-0.0138 0.0175,-0.0138 z m 0.95007,-1.29396 c 0.0833,0.54001 0.95141,1.36485 0.78757,2.06276 -0.091,0.36759 -0.45976,0.82142 -1.27775,1.10614 0,0 -0.0104,-0.004 -0.0104,-0.004 0.11502,-0.40803 -0.0829,-0.84632 -0.23071,-1.24897 -0.15309,-0.41707 -0.25404,-0.78683 -0.0484,-1.15795 0,0 0,0 0,0 0.13234,-0.22175 0.35415,-0.40917 0.76728,-0.73911 0,0 0.0124,-0.0184 0.0124,-0.0184 z m 0.54207,-1.55866 c 0.2165,0.50581 0.76286,0.73303 1.12529,1.21359 0.2903,0.3849 0.47283,1.1646 -0.67185,2.00599 0,0 -0.0114,-0.001 -0.0114,-0.001 0.002,-0.54403 -0.53743,-1.0172 -0.80436,-1.44092 -0.31266,-0.4963 -0.31217,-0.82166 0.35497,-1.75568 0,0 0.007,-0.0218 0.007,-0.0218 z m 0.17854,-1.70237 c 0.31921,0.48672 0.96457,0.5899 1.42293,0.99921 0,0 0,0 0,0 0.3515,0.31783 0.62595,0.99065 -0.17535,2.03054 0,0 -0.0113,0.002 -0.0113,0.002 -0.1378,-0.44559 -0.62599,-0.71825 -0.99307,-1.00327 -0.38581,-0.29956 -0.64993,-0.60007 -0.52656,-1.19096 0,0 0,0 0,0 0.0447,-0.21985 0.13584,-0.47785 0.28039,-0.81382 1e-5,-10e-6 0.003,-0.0237 0.003,-0.0238 z m -0.095,-1.77544 c 0.34793,0.42342 0.98528,0.48106 1.47565,0.76114 0.44592,0.2547 0.83626,0.79337 0.29652,1.99779 0,0 -0.0104,0.004 -0.0104,0.004 -0.28305,-0.44928 -0.9674,-0.59284 -1.40737,-0.86674 -0.47468,-0.29551 -0.68761,-0.68952 -0.35435,-1.87196 0,-2e-5 -2e-5,-0.0247 -2e-5,-0.0247 z m -0.25694,-1.81457 c 0.01,0.0109 0.02,0.0216 0.0303,0.032 0.37859,0.38378 1.02233,0.39998 1.51946,0.63118 0.47065,0.21889 0.86353,0.68787 0.50405,1.90398 0,0 -0.01,0.006 -0.01,0.006 -0.34524,-0.39487 -1.03384,-0.4404 -1.51122,-0.66523 -0.49733,-0.23423 -0.79251,-0.63892 -0.53379,-1.87053 0,10e-6 0.002,-0.0119 0.002,-0.0119 0,-2e-5 -0.002,-0.0253 -0.002,-0.0253 z m -0.33595,-1.83262 c 0.63081,0.66955 2.11195,0.22388 2.25154,1.54836 0,0 0,0 0,0 0.0263,0.23596 0.0105,0.53364 -0.0659,0.90098 0,0 -0.009,0.007 -0.009,0.007 -0.41537,-0.38656 -1.19905,-0.34149 -1.69902,-0.60993 -0.42729,-0.22849 -0.68099,-0.67692 -0.4752,-1.82044 0,-5e-5 -0.002,-0.0255 -0.002,-0.0255 z m -0.3631,-1.84716 c 0.74772,0.79581 2.65673,-0.002 2.23073,2.40757 0,0 -0.009,0.007 -0.009,0.007 -0.80427,-0.68498 -2.66226,0.15941 -2.21943,-2.38863 1e-5,9e-5 -0.002,-0.0258 -0.002,-0.0257 z m -0.352,-1.86541 c 0.7572,0.84145 2.62463,0.003 2.2254,2.41063 6e-5,-5e-5 -0.009,0.007 -0.009,0.007 -0.40384,-0.33147 -1.07206,-0.28762 -1.58276,-0.48073 -0.50506,-0.19098 -0.87384,-0.62664 -0.63182,-1.91081 0,3e-5 -0.002,-0.026 -0.002,-0.026 z m -0.30264,-1.88734 c 0.74823,0.90416 2.58799,0.0582 2.167,2.45429 0,0 -0.009,0.007 -0.009,0.007 -0.40286,-0.33205 -1.06536,-0.29325 -1.57521,-0.49693 -0.49669,-0.19842 -0.86965,-0.65293 -0.58185,-1.93792 0,1e-5 -0.001,-0.0262 -0.001,-0.0262 z m -0.21502,-1.91297 c 0.71933,0.98608 2.54829,0.1619 2.05553,2.53855 0,0 -0.009,0.006 -0.009,0.006 -0.3946,-0.34051 -1.05045,-0.31969 -1.55474,-0.54426 -0.48323,-0.21519 -0.8513,-0.69617 -0.49216,-1.9743 0,10e-6 4.4e-4,-0.0264 4.4e-4,-0.0264 z m -0.0885,-1.94229 c 0.0745,0.12203 0.172,0.22016 0.28313,0.30273 0,0 0,0 0,0 0.83519,0.61984 2.13169,0.36178 1.60724,2.36067 0,0 -0.009,0.006 -0.009,0.006 -0.36248,-0.34156 -0.97773,-0.36634 -1.4635,-0.59421 -0.46473,-0.218 -0.82996,-0.65751 -0.5123,-1.76596 0.0259,-0.09 0.0566,-0.18422 0.0923,-0.28254 0,0 0.002,-0.0266 0.002,-0.0266 z m 0.0842,-1.9604 c 0.49298,1.01952 2.1134,0.63545 1.8221,2.23555 0,0 0,0 0,0 -0.031,0.1683 -0.083,0.35847 -0.15851,0.57841 0,0 -0.01,0.005 -0.01,0.005 -0.26869,-0.28854 -0.71799,-0.39411 -1.12937,-0.56159 -0.60763,-0.24746 -1.24801,-0.71497 -0.5295,-2.23119 0,10e-6 0.005,-0.0264 0.005,-0.0264 z m 0.28416,-1.9507 c 0.18893,0.53412 0.82041,0.78023 1.23154,1.12091 0.43557,0.36093 0.62203,0.77984 0.14927,1.84003 0,0 -0.0102,0.004 -0.0102,0.004 -0.32452,-0.41219 -0.95445,-0.51846 -1.40478,-0.86337 -0.41305,-0.31636 -0.68399,-0.91261 0.0263,-2.07606 0,0 0.008,-0.0258 0.008,-0.0258 z m 0.50711,-1.91624 c 0.008,0.0363 0.0177,0.0715 0.0294,0.10574 0,0 0,0 0,0 0.17305,0.50517 0.7538,0.81744 1.09589,1.19256 0.36596,0.4013 0.47212,0.82795 -0.0842,1.79451 0,0 -0.0106,0.003 -0.0106,0.003 -0.28019,-0.43769 -0.88328,-0.60624 -1.29556,-0.9927 -0.37523,-0.35173 -0.59327,-0.9672 0.21204,-2.02452 0.0137,-0.0179 0.0277,-0.0359 0.042,-0.054 1e-5,-1e-5 0.0111,-0.0249 0.0111,-0.0249 z m 0.74759,-1.83965 c 0.10042,1.11461 1.60888,1.26163 1.06078,2.52602 0,0 0,0 0,0 -0.0841,0.19178 -0.21655,0.40539 -0.41081,0.66556 0,0 -0.0109,0.002 -0.0109,0.002 -0.24742,-0.50339 -0.86002,-0.71364 -1.22098,-1.20366 0,0 0,0 0,0 -0.29362,-0.39963 -0.36782,-1.04991 0.56786,-1.9667 0,-1e-5 0.014,-0.0232 0.014,-0.0232 z m 0.9622,-1.72991 c -0.0152,0.56733 0.48571,1.02458 0.74811,1.48875 0.28158,0.49813 0.29804,0.9377 -0.49653,1.75869 0,0 -0.011,5.6e-4 -0.011,5.6e-4 -0.17099,-0.49837 -0.71697,-0.80059 -1.02191,-1.28857 -0.27534,-0.44061 -0.31799,-1.10483 0.76472,-1.93811 0,0 0.0166,-0.0213 0.0166,-0.0213 z m 1.15193,-1.60505 c -0.0776,0.56154 0.36868,1.07177 0.57654,1.56436 0.22211,0.52637 0.18847,0.97208 -0.70456,1.6945 0,0 -0.011,-7.7e-4 -0.011,-7.7e-4 -0.10739,-0.51482 -0.61538,-0.88526 -0.86004,-1.40375 -0.2226,-0.47173 -0.18687,-1.13054 0.98022,-1.83506 0,0 0.0189,-0.0193 0.0189,-0.0193 z"
       id="path4449-2"
       inkscape:connector-curvature="0"
       sodipodi:nodetypes="csssc"
       inkscape:path-effect="#path-effect4505-3"
       inkscape:original-d="m 284.75725,322.08101 c -14.63714,14.62241 -28.3135,13.72526 -25.66379,29.72022 2.41171,14.55825 21.89777,5.18893 35.63032,15.08168 16.39311,11.80939 29.58936,3.07478 48.15463,2.09779 28.12308,-1.47997 3.03121,-19.95629 16.17169,-34.70137"
       inkscape:export-xdpi="300"
       inkscape:export-ydpi="300" />
    <g
       id="g4278"
       transform="matrix(0.67327812,0,0,0.67327812,137.16528,130.401)">
      <path
         d="m 319.32337,244.80957 c 8.0397,10.43083 9.80298,19.909 10.04274,19.69033 3.28802,-0.37246 12.05327,3.26068 18.29415,5.76766 12.60916,5.06515 27.4046,20.75036 23.62066,36.35299 -4.33213,10.8685 -14.52898,18.29021 -24.63424,23.49855 -29.9708,13.86343 -64.30776,16.1835 -96.70825,12.53235 -16.43246,-1.85174 -32.6116,-6.71344 -47.27492,-14.30917 -16.80685,-8.85975 -19.52456,-11.98982 -21.25039,-23.24298 -2.39598,-13.79323 8.84553,-24.72338 20.21165,-30.57283 8.20864,-4.39616 17.52411,-7.90017 27.63433,-10.61793 1.94535,-5.94555 2.32707,-16.14577 13.57816,-25.91156 11.29719,-9.66714 20.27125,-18.75362 35.11807,-22.38727 3.61775,-0.36178 8.55742,-0.0202 12.34613,1.46511 10.1718,8.73448 21.47339,17.66032 29.02191,27.73475 z"
         style="fill:#52553f;fill-opacity:1;fill-rule:evenodd"
         sodipodi:nodetypes="ccsccscccccccc"
         inkscape:connector-curvature="0"
         id="path1330" />
      <g
         transform="matrix(0.25306242,0.05080346,-0.01115236,0.2013237,237.61076,212.51571)"
         id="g3427">
        <path
           inkscape:connector-curvature="0"
           id="path4687-0"
           style="fill:#a09ca4;fill-opacity:1;fill-rule:evenodd;stroke:none"
           d="m 115.76554,287.93226 c -0.0407,-4.47915 -3.25828,-6.77743 -7.04293,-6.78063 -1.66585,0.1486 -3.16907,0.74657 -4.15741,1.74142 0.55116,-3.06016 0.49473,-5.79973 -1.12126,-8.34321 -0.66236,-1.26144 -1.57432,-2.42242 -2.26319,-3.54637 -0.71253,-1.15097 -1.542517,-2.4094 -1.8387,-4.0261 -0.455217,1.55658 -1.343514,2.63521 -2.115844,3.77929 -0.745528,1.07776 -1.737144,2.16575 -2.486814,3.35633 -1.789551,2.34691 -2.039971,5.07422 -1.728921,8.17748 -0.892988,-1.08896 -2.348486,-1.83568 -3.998415,-2.12805 -3.770633,-0.3988 -7.16132,1.56798 -7.497786,6.02837 -0.13903,2.01399 0.118189,3.50947 1.785019,7.05173 0.809952,1.5265 1.797698,3.0616 0.631947,4.72091 0.01988,0.0227 0.06369,0.0249 0.04312,0.002 2.417337,-0.71623 3.394448,-1.47968 3.493891,-4.28174 0.05504,-1.55099 0.492734,-3.2243 2.403312,-2.82541 1.602865,0.40585 3.322494,3.0677 2.155193,4.772 0.07278,1.06991 0.557543,2.39335 1.185195,3.42436 -0.185431,0.80285 -0.580337,1.36319 -1.059647,1.78062 -0.74832,0.47205 -1.217529,0.61264 -1.961359,0.3431 -0.694295,-0.36005 -1.187372,-0.84898 -1.272301,-1.5721 -1.202327,0.86802 -1.669647,2.76888 -1.017088,4.31012 0.625086,1.09814 1.429072,1.58002 2.501609,1.93668 1.842299,0.41801 2.965441,-0.0381 4.059435,-0.88883 0.04472,-0.0428 -0.136922,0.13525 0.02064,0.001 -0.798694,3.18641 2.476483,5.67675 3.230273,8.1771 0.948523,-2.3891 4.367311,-4.54667 3.775771,-7.79941 l 9.1e-4,-0.026 c 0.11952,0.12211 0.0709,0.0611 0.0466,0.0324 1.02756,0.97718 2.09104,1.49276 3.95595,1.28373 1.09348,-0.22238 1.92638,-0.64478 2.62802,-1.70188 0.76211,-1.47025 0.45184,-3.388 -0.6845,-4.37317 -0.13501,0.68973 -0.6831,1.14878 -1.37946,1.43938 -0.75891,0.17148 -1.21767,0.007 -1.93008,-0.5384 -0.44693,-0.48663 -0.8252,-1.08577 -0.92957,-1.88079 0.69823,-0.9609 1.2539,-2.23509 1.42454,-3.31577 -1.04251,-1.81522 0.85905,-4.27262 2.48497,-4.51657 1.93269,-0.22856 2.22799,1.50437 2.17375,3.03256 -0.10035,2.82784 0.84072,3.68725 3.19918,4.64033 -0.0237,0.0205 0.0199,0.0227 0.0429,0.002 -1.06507,-1.79396 0.0486,-3.20092 0.96365,-4.64113 1.91192,-3.35926 2.27457,-4.82674 2.2785,-6.84767" />
        <path
           inkscape:connector-curvature="0"
           id="path4689-7"
           style="fill:#b5b4bd;fill-opacity:1;fill-rule:evenodd;stroke:none"
           d="m 84.598109,295.37393 c 0.0025,-0.0709 -0.420682,-1.22679 -1.067152,-2.41968 -1.222382,-2.29173 -2.442143,-6.04028 -0.671308,-9.15536 1.830815,-4.10787 7.710669,-3.88381 10.019936,-0.33185 0.356361,0.52705 0.730658,1.24218 0.837105,1.96628 l -2.233448,1.77035 c -1.106929,-1.216 -2.962894,-2.54062 -4.737268,-1.83987 -1.032483,0.41241 -1.610497,1.10216 -2.002843,2.19765 -0.733259,3.1639 2.110172,7.25199 -0.406113,10.14189 -7.68e-4,0.0216 -0.04289,-0.002 7.68e-4,-0.0216 l -7.68e-4,0.0216 c 0.368503,-1.02582 0.379111,-1.32473 0.260977,-2.32942" />
        <path
           inkscape:connector-curvature="0"
           id="path4691-0"
           style="fill:#b5b4bd;fill-opacity:1;fill-rule:evenodd;stroke:none"
           d="m 112.02032,296.77253 c 0.0253,-0.0662 0.52767,-1.1786 1.23188,-2.30399 1.38344,-2.15784 2.86123,-5.7744 1.34226,-9.05444 -1.53341,-4.27686 -7.408,-4.64257 -9.96044,-1.33475 -0.41309,0.46604 -0.81665,1.16467 -0.99558,1.87756 l 2.1219,1.98582 c 1.18903,-1.10077 3.13248,-2.23457 4.82934,-1.35975 1.02115,0.51532 1.52629,1.25956 1.86133,2.39172 0.48527,3.22491 -2.63717,6.99105 -0.31391,10.14666 -9.2e-4,0.026 0.0206,0.001 7.7e-4,-0.0216 l -7.7e-4,0.0216 c -0.2946,-1.05924 -0.30561,-1.35952 -0.11678,-2.34883" />
        <path
           inkscape:connector-curvature="0"
           id="path4693-4"
           style="fill:#b5b4bd;fill-opacity:1;fill-rule:evenodd;stroke:none"
           d="m 84.383914,297.68329 c 1.052057,-0.96911 1.293501,-2.13952 1.219401,-3.8612 -0.184289,-2.25879 -1.828117,-5.84513 0.608422,-7.78874 0.640523,-0.54823 1.570761,-0.59499 2.317675,-0.41883 1.163629,0.31306 2.083822,1.14887 2.764127,1.99507 l -0.109401,3.08262 c -0.99359,-0.67829 -2.241136,-1.13438 -3.309801,-0.30461 -0.984305,0.87876 -0.704453,2.35286 -0.810124,3.50783 -0.10856,1.15543 -0.102638,2.19929 -1.374267,3.112 l -1.306032,0.67589" />
        <path
           inkscape:connector-curvature="0"
           id="path4695-8"
           style="fill:#b5b4bd;fill-opacity:1;fill-rule:evenodd;stroke:none"
           d="m 112.09181,299.09625 c -0.97955,-1.07078 -1.13722,-2.26091 -0.94148,-3.96936 0.34353,-2.23258 2.23663,-5.66383 -0.0542,-7.82216 -0.59973,-0.61031 -1.54679,-0.77396 -2.30157,-0.65062 -1.15939,0.17402 -2.13639,0.93707 -2.8956,1.71131 l -0.10939,3.08248 c 1.06052,-0.5979 2.31352,-0.9058 3.34132,0.0289 0.91829,0.97425 0.53553,2.41523 0.55868,3.57667 0.005,1.16068 -0.0781,2.20038 1.12744,3.23755 l 1.27477,0.80512" />
        <path
           inkscape:connector-curvature="0"
           id="path4697-1"
           style="fill:#b5b4bd;fill-opacity:1;fill-rule:evenodd;stroke:none"
           d="m 94.120563,285.31506 c -0.570515,-1.42119 -1.041163,-6.87618 0.628104,-10.24748 1.434855,-2.39063 3.753122,-4.73355 4.481589,-7.15639 l -0.84675,17.61781 -4.263012,-0.21394" />
        <path
           inkscape:connector-curvature="0"
           id="path4699-5"
           style="fill:#b5b4bd;fill-opacity:1;fill-rule:evenodd;stroke:none"
           d="m 103.26621,285.79659 c 0.66906,-1.35883 1.52456,-6.74402 0.10019,-10.27397 -1.26179,-2.47748 -3.777375,-5.85277 -3.937254,-7.5789 l -0.447647,17.63784 4.284761,0.21504" />
        <path
           inkscape:connector-curvature="0"
           id="path4701-0"
           style="fill:#b5b4bd;fill-opacity:1;fill-rule:evenodd;stroke:none"
           d="m 98.122515,302.45703 c -2.721973,-1.27481 -4.798563,-3.44198 -5.416442,-6.65381 1.121972,-1.63583 0.03923,-3.61755 -1.156488,-4.83801 l 0.119216,-3.35919 2.36942,-1.87625 9.281479,0.4658 2.22824,2.107 -0.11922,3.35919 c -1.27718,1.0738 -2.49557,2.91421 -1.49374,4.65993 -0.84288,3.13568 -3.03159,5.1367 -5.812465,6.13534 -0.02064,-10e-4 0.02064,0.001 0,0" />
        <path
           inkscape:connector-curvature="0"
           id="path4703-5"
           style="fill:#a09ca4;fill-opacity:1;fill-rule:evenodd;stroke:none"
           d="m 101.68222,296.81093 c -0.15152,-0.14612 -0.27637,-0.36154 -0.17902,-0.5886 0.10076,-0.32051 0.27696,-0.35705 0.45491,-0.34812 0.35491,-0.0304 0.54532,0.23717 0.68919,0.52121 -0.6065,-1.02934 0.39512,-2.99664 -0.27977,-5.21284 l -0.0206,-10e-4 c 1.13906,-0.9164 0.1678,-2.91522 1.2205,-3.81309 -0.79318,-0.17856 -1.48594,0.0189 -2.3306,0.78879 0.41217,-0.44339 0.21428,-1.10442 0.6283,-1.5028 -0.85838,0.44682 -2.064655,0.12859 -2.581213,0.98566 -0.705724,-0.0354 -1.347946,-0.046 -2.062005,0.0577 -0.222025,0.0146 -0.380357,0.1452 -0.522089,0.41534 -0.977052,0.0671 -1.989423,-0.0782 -2.978178,0.31476 -0.381815,0.19016 -0.154954,0.64335 0.149218,0.81969 0.02645,0.46555 0.345627,0.82952 0.670624,1.03285 -0.07669,0.25084 0.09388,0.46896 0.155837,0.63315 -0.885819,0.004 -0.813186,-0.83061 -1.678155,-1.40574 -0.150939,-0.0784 -0.352163,-0.0394 -0.489894,0.11416 -0.234237,0.35874 -0.117998,0.80628 0.02997,0.9749 0.438873,0.7181 1.568127,0.77477 2.204928,0.85522 -0.08989,0.11135 -0.09892,0.36568 -0.09892,0.36568 l -0.221112,-0.0111 c -0.288684,-0.0145 -0.148793,0.38558 -0.128599,0.50287 0.211347,0.89355 2.490076,0.26684 2.920702,0.61068 0.475628,0.37197 -1.292684,1.51439 -1.341649,0.3742 -0.517683,0.29957 -0.384083,0.86396 -0.150069,1.10782 -1.271203,0.30699 -2.286178,1.43873 -1.631054,2.91222 0.119251,-0.25239 0.615481,-1.06177 1.074882,-0.92273 -1.099821,1.01166 -0.04082,2.9695 0.31756,2.91659 -0.247966,-0.54416 0.11708,-1.47968 0.549805,-1.8062 -0.400517,1.32704 -0.126822,2.36279 1.154938,2.98463 -0.204668,-0.47444 -0.340871,-0.9713 0.205755,-1.38201 0.363693,-0.28489 0.84708,-0.21571 1.1059,0.0297 0.450897,0.37087 0.344578,0.8552 0.2238,1.14867 -0.189062,0.38722 -0.549313,0.48512 -0.773537,0.56429 l 0.264692,0.0839 c 1.234509,0.13325 2.602423,-1.58695 2.307663,-2.64603 1.22364,0.43174 2.2337,-0.56171 2.11089,-1.51873 -0.33742,0.14735 -0.62668,0.24872 -0.97326,0.0444 z m -5.297395,-4.86162 c -0.418853,-0.0663 -1.307574,0.0278 -1.310999,-0.48168 0.711338,-0.0354 1.731319,-0.10003 2.353181,0.48874 l -1.042184,-0.007 z m -1.355792,-1.04144 c -0.06412,-0.0969 -0.01278,-0.32636 0.06094,-0.50641 0.597273,-0.0184 1.305313,0.0397 1.869987,0.32606 0.282151,0.19795 0.511378,0.57993 0.540266,0.97797 -0.639063,-0.70558 -1.6532,-0.80171 -2.471243,-0.79753 z m 2.901657,-1.96567 c 0.01905,0.046 0.01733,0.0943 0.01573,0.13953 -0.0049,0.1385 -0.119343,0.24853 -0.251368,0.2419 -0.132117,-0.007 -0.238522,-0.12783 -0.233611,-0.26624 0.0025,-0.0709 0.04781,-0.13634 0.0743,-0.18343 -0.155055,-0.0531 -0.351135,-0.15637 -0.409173,-0.34295 0.105641,0.14404 0.498359,0.25721 0.655633,0.23933 0.198868,0.0358 0.570503,0.1221 0.649821,0.40637 -0.08592,-0.0975 -0.324978,-0.20324 -0.501991,-0.23452" />
        <path
           inkscape:connector-curvature="0"
           id="path4705-0"
           style="fill:#b5b4bd;fill-opacity:1;fill-rule:evenodd;stroke:none"
           d="m 97.713676,312.55398 c -0.02086,-1.32223 -3.437159,-4.85905 -2.463033,-7.96572 0.231636,-0.89404 0.670272,-1.38129 1.154991,-2.56556 0.582947,0.37743 0.888839,0.50854 1.433263,0.76786 l -0.125221,9.76342" />
        <path
           inkscape:connector-curvature="0"
           id="path4707-0"
           style="fill:#b5b4bd;fill-opacity:1;fill-rule:evenodd;stroke:none"
           d="m 97.775573,312.62793 c 0.135807,-1.31458 3.750117,-4.56919 2.999037,-7.73972 -0.18902,-0.91544 -0.59068,-1.4673 -0.990416,-2.67384 -0.586426,0.31884 -0.899893,0.39666 -1.482727,0.62205 l -0.525802,9.79152" />
        <path
           inkscape:connector-curvature="0"
           id="path4709-8"
           style="fill:#b5b4bd;fill-opacity:1;fill-rule:evenodd;stroke:none"
           d="m 90.85997,305.45741 c -1.014081,-0.18964 -2.146266,-0.68818 -2.596696,-1.68407 -0.604558,-1.07441 -0.353186,-2.52522 0.369815,-3.57812 -0.245765,0.68354 -0.02036,1.78455 0.421052,2.43487 0.83017,0.94449 1.816577,1.22567 3.042522,0.98773 1.389151,-0.41712 2.222045,-1.44517 2.956588,-2.82394 0.427977,0.41848 0.49311,0.48929 0.965754,0.8612 -0.798732,1.88734 -2.403306,3.43124 -3.785223,3.73258 -0.470002,0.16358 -0.911997,0.1414 -1.373814,0.0698" />
        <path
           inkscape:connector-curvature="0"
           id="path4711-1"
           style="fill:#b5b4bd;fill-opacity:1;fill-rule:evenodd;stroke:none"
           d="m 105.088,306.19411 c 0.99944,-0.0886 2.18743,-0.47038 2.70691,-1.41807 0.67847,-1.01031 0.53061,-2.48125 -0.13667,-3.6039 0.21812,0.70716 -0.0839,1.78146 -0.57051,2.38564 -0.89414,0.86079 -1.89692,1.04267 -3.12334,0.67778 -1.33292,-0.55345 -2.11158,-1.65903 -2.72456,-3.10819 -0.45594,0.37353 -0.54744,0.43644 -1.02286,0.76048 0.66171,1.96122 2.1277,3.63655 3.507,4.09915 0.43542,0.20878 0.87748,0.23096 1.36403,0.20721" />
        <path
           inkscape:connector-curvature="0"
           id="path4713-6"
           style="fill:#b5b4bd;fill-opacity:1;fill-rule:evenodd;stroke:none"
           d="m 90.906154,303.46457 c -0.703504,-0.10637 -1.501783,-0.65585 -1.858749,-1.25392 -0.374658,-0.62142 -0.502341,-1.43993 -0.300376,-2.1033 0.299454,0.92048 1.222177,1.68565 2.152881,1.70993 0.771846,0.0835 1.626213,-0.33749 2.200994,-0.93424 0.346297,-0.40139 0.609812,-0.89748 0.802936,-1.40046 0.274367,0.41016 0.549166,0.72395 0.870036,1.04294 -0.365293,0.93276 -1.056207,1.68754 -1.71763,2.30542 -0.61496,0.43332 -1.442043,0.69159 -2.150092,0.63363" />
        <path
           inkscape:connector-curvature="0"
           id="path4715-8"
           style="fill:#b5b4bd;fill-opacity:1;fill-rule:evenodd;stroke:none"
           d="m 105.18326,304.20351 c 0.70825,-0.0319 1.54301,-0.50275 1.91932,-1.06405 0.41721,-0.58165 0.60261,-1.38478 0.46986,-2.06519 -0.36342,0.88771 -1.36167,1.55621 -2.26577,1.46603 -0.79694,0.0272 -1.5971,-0.47717 -2.12744,-1.12875 -0.31662,-0.43495 -0.54405,-0.95544 -0.701,-1.47259 -0.32391,0.37679 -0.59875,0.66612 -0.94069,0.94871 0.27307,0.96451 0.90829,1.78634 1.54804,2.46925 0.56141,0.46971 1.36659,0.83249 2.09768,0.84659" />
      </g>
      <path
         d="m 226.53147,274.39362 c -4.38404,3.8803 -1.8043,11.50046 -3.28803,16.60499 -0.41825,6.26465 6.43562,11.86681 17.05683,16.79427 11.04556,5.1259 46.48114,5.10148 54.04634,4.35961 7.56521,-0.73881 21.83775,-5.0221 27.83374,-9.21074 5.70291,-3.98105 6.13337,-4.48784 9.58626,-8.47499 1.2456,-3.87419 1.68217,-12.91397 -0.88231,-17.22779 -2.48815,5.81892 -1.81345,4.00852 -3.82534,6.31045 -2.37214,5.25106 -7.63848,8.08726 -12.66974,10.27927 -17.52697,7.78807 -37.35893,10.17548 -56.23531,6.75313 -10.09305,-1.84399 -20.81196,-4.6588 -28.23672,-12.18737 -3.69407,-3.78566 -3.26361,-8.93599 -3.38572,-14.00083 z"
         style="fill:#4e2a0f;fill-opacity:1;fill-rule:evenodd"
         sodipodi:nodetypes="cczzzccccccc"
         inkscape:connector-curvature="0"
         id="path1338" />
      <path
         d="m 342.07642,267.95495 c 94.2262,49.2227 -68.21814,107.53401 -153.88694,51.50325 92.63868,66.35278 263.96405,-9.83661 153.88694,-51.50325 z m -11.0761,7.31182 c 3.88335,0.71744 8.61847,1.02884 15.53645,3.92609 4.69544,6.89661 23.3978,18.16504 22.88796,24.28315 -0.62586,7.49499 -33.82667,10.15716 -60.80863,15.99745 -30.06104,-0.23005 -66.72619,-7.27427 -78.22113,-17.39417 -0.54431,-0.47921 25.17004,-10.87613 31.01644,-34.6067 6.22801,-25.27231 19.22441,-39.77687 21.92322,-48.79528 16.48287,2.42862 46.44451,28.3222 47.66569,56.58946 z m -57.29469,-52.58094 c -7.94988,-0.23996 -30.02575,14.30398 -37.478,28.41379 4.58553,10.35255 16.28138,-19.36393 26.32558,-12.42489 2.59195,1.79056 6.62489,-10.38521 11.15242,-15.9889 z"
         style="opacity:0.25;fill:#000000;fill-rule:evenodd"
         sodipodi:nodetypes="cccccscsscccssc"
         inkscape:connector-curvature="0"
         id="path1328" />
      <path
         d="m 273.90636,264.29199 c 3.33993,-15.75016 7.85572,-34.45694 13.46704,-36.56347 3.99936,-1.50022 22.56767,15.33269 30.39544,27.87726 4.90914,-0.45489 -21.23964,-32.53301 -30.54503,-30.09279 -8.34066,2.18653 -15.71214,35.59234 -13.58729,38.2942 z"
         style="opacity:0.25;fill:#000000;fill-rule:evenodd;stroke:#000000;stroke-width:0.07902252px"
         sodipodi:nodetypes="cscscc"
         inkscape:connector-curvature="0"
         id="path1350" />
      <path
         d="m 273.26906,224.86045 c 5.0801,-7.82471 -9.70838,26.37961 -15.56394,37.82603 -1.10516,3.31245 -5.72733,4.89388 -7.36371,1.67302 -1.71881,-3.37657 4.27413,-2.06685 6.35929,-5.52279 4.8664,-8.06284 13.80849,-31.81478 16.56836,-33.97626 z m 6.36234,-8.70335 c -9.17716,1.54357 -31.49421,15.29008 -43.60221,30.96301 -3.64522,5.66321 -6.71649,20.11893 -7.78197,23.7672 -1.48068,5.08621 -0.94336,7.91935 -2.00884,9.20464 -2.00884,1.34024 -2.50952,2.68049 -2.34161,3.84977 0.16791,1.17233 -1.00442,-5.35487 1.17233,-7.8644 2.1737,-2.51257 1.67302,-0.8365 1.67302,-0.8365 0,0 4.56721,-21.67594 5.6907,-24.01755 7.53162,-15.69643 40.30808,-38.67475 47.19858,-35.06617 z m -50.35876,47.69927 c -56.77264,15.67994 -48.36139,39.16323 -46.88376,47.36344 -4.89235,-31.3843 25.92435,-40.45156 46.88376,-47.36344 z"
         style="opacity:0.25;fill:#ffffff;fill-rule:evenodd"
         sodipodi:nodetypes="ccsscccscsscscccc"
         inkscape:connector-curvature="0"
         id="path8988" />
      <path
         d="m 269.4315,225.88257 c -5.00989,-1.90656 -26.99417,16.37846 -32.88026,25.72384 6.03873,-5.57468 27.52233,-23.07388 32.88026,-25.72384 z m 16.57446,-1.44251 c -1.63333,0.14867 -10.51741,14.42487 -13.34444,28.74778 -4.42067,22.40864 11.2837,9.46109 21.20578,3.08348 4.17949,-2.6866 19.94797,4.73512 23.69089,1.27308 7.40645,-6.85082 -21.12946,-34.58991 -31.55223,-33.10312 z m -59.66378,54.29974 c 4.78397,30.66687 92.87681,31.27135 104.50243,-1.89283 -3.8345,33.44811 -107.45158,34.50748 -104.50243,1.89283 z"
         style="opacity:0.25;fill:#000000;fill-rule:evenodd"
         sodipodi:nodetypes="ccccssscccc"
         inkscape:connector-curvature="0"
         id="path1348" />
      <path
         d="m 326.0887,263.77855 c -1.71887,-0.0143 -0.99392,2.53077 -0.0343,2.61542 2.06825,0.18244 0.0343,-2.61542 0.0343,-2.61542 z"
         style="opacity:0.75;fill:#3a1f0b;fill-opacity:1;fill-rule:evenodd"
         sodipodi:nodetypes="sss"
         inkscape:connector-curvature="0"
         id="path20841" />
      <path
         sodipodi:nodetypes="cccccccccccccccccccccccccc"
         inkscape:connector-curvature="0"
         id="path29982-6"
         d="m 332.50942,296.24156 1.5439,-0.42273 c 0.74824,-0.005 0.11106,0.3675 0.4912,-0.83526 -0.58234,0.17637 -1.3322,0.38606 -1.90047,0.44883 -0.54306,1.07605 -0.78231,0.81402 -0.13463,0.80916 z m 0.13463,-0.80917 c 0.0473,-0.0937 0.0911,-0.18474 0.12631,-0.26828 0.61554,-0.1288 1.23116,-0.25755 1.84566,-0.38907 -0.0251,0.0662 -0.0488,0.13641 -0.0715,0.20853 0.40018,-0.12121 0.72635,-0.22784 0.83856,-0.25551 0.36839,-0.0904 -0.045,-1.18202 -0.045,-1.18202 -1.04809,0.24105 -2.09518,0.48487 -3.14425,0.72865 -0.0868,0.36586 -0.42975,0.97489 -0.25646,1.09214 0.13367,0.0893 0.39045,0.10048 0.70665,0.0656 z m -0.15296,-1.61114 c 0.96988,-0.21369 1.93977,-0.42733 2.91166,-0.64102 0.13069,-0.30311 0.54966,-0.86035 0.39217,-0.90937 -0.64904,-0.19331 -2.00857,-0.19501 -2.81474,0.18507 -0.29444,0.13673 -0.32583,0.90931 -0.48908,1.36532 z m 1.99287,-1.82235 c 0.1456,-0.0301 0.29121,-0.0603 0.4348,-0.0905 0.14123,-0.45599 0.28146,-0.90925 0.42269,-1.36525 l -0.63792,-0.0896 c -0.0732,0.51327 -0.14538,1.02931 -0.21957,1.54532 z"
         style="fill:#52553f;fill-opacity:1;fill-rule:evenodd;stroke:#2e3023;stroke-width:0.23439322px;stroke-opacity:1" />
    </g>
  </g>
  <metadata
     id="metadata24">
    <rdf:RDF>
      <cc:Work>
        <dc:format>image/svg+xml</dc:format>
        <dc:type
           rdf:resource="http://purl.org/dc/dcmitype/StillImage" />
        <cc:license
           rdf:resource="http://creativecommons.org/publicdomain/zero/1.0/" />
        <dc:publisher>
          <cc:Agent
             rdf:about="http://openclipart.org/">
            <dc:title>Openclipart</dc:title>
          </cc:Agent>
        </dc:publisher>
        <dc:title></dc:title>
      </cc:Work>
      <cc:License
         rdf:about="http://creativecommons.org/publicdomain/zero/1.0/">
        <cc:permits
           rdf:resource="http://creativecommons.org/ns#Reproduction" />
        <cc:permits
           rdf:resource="http://creativecommons.org/ns#Distribution" />
        <cc:permits
           rdf:resource="http://creativecommons.org/ns#DerivativeWorks" />
      </cc:License>
    </rdf:RDF>
  </metadata>
</svg>
